D:\school\WTK\thesis\model\3dpredictsim\Results\Batchsim_tmt_linear_v2\Pog_s1_tmt_bCst_d05_k2000_ig24_pas_GRF.mot
nRows=15
nColumns=19

name D:\school\WTK\thesis\model\3dpredictsim\Results\Batchsim_tmt_linear_v2\Pog_s1_tmt_bCst_d05_k2000_ig24_pas_GRF.mot
datacolumns 19
datarows 15
range 0.5361745541 0.6863034292
endheader
time 	ground_force_vx	ground_force_vy	ground_force_vz	ground_force_px	ground_force_py	ground_force_pz	1_ground_force_vx	1_ground_force_vy	1_ground_force_vz	1_ground_force_px	1_ground_force_py	1_ground_force_pz	ground_torque_x	ground_torque_y	ground_torque_z	1_ground_torque_x	1_ground_torque_y	1_ground_torque_z
        0.5361745541	      124.2853111440	      519.4610940615	       -4.4030904145	        0.3239604421	        0.0000000000	        0.0489463974	      -61.5029042264	       42.5918113834	      -10.2355391236	        0.8292651551	        0.0000000000	       -0.0471539854	        0.0000000000	        0.0000000000	        0.0000000000	        0.0000000000	        0.0000000000	        0.0000000000	
        0.5468980452	       97.9548317001	      431.5087607782	        0.7222720769	        0.3343043510	        0.0000000000	        0.0475770225	     -113.7332500915	       97.0568288606	      -25.3509604863	        0.8398959889	        0.0000000000	       -0.0453354379	        0.0000000000	        0.0000000000	        0.0000000000	        0.0000000000	        0.0000000000	        0.0000000000	
        0.5576215363	       63.9500683801	      330.4821137510	        6.4586911727	        0.3508034296	        0.0000000000	        0.0450309955	     -114.6575101172	      209.8023483560	      -47.5050390379	        0.8469006554	        0.0000000000	       -0.0443807411	        0.0000000000	        0.0000000000	        0.0000000000	        0.0000000000	        0.0000000000	        0.0000000000	
        0.5683450273	       29.6051884289	      233.2541122247	        6.0876372444	        0.3762160104	        0.0000000000	        0.0405617023	      -61.0147150078	      382.4625098373	       -7.3062625459	        0.8518752058	        0.0000000000	       -0.0436555166	        0.0000000000	        0.0000000000	        0.0000000000	        0.0000000000	        0.0000000000	        0.0000000000	
        0.5790685184	        7.1248524389	      160.1593441928	        9.0077977366	        0.4061648903	        0.0000000000	        0.0333381981	      -72.9902295162	      594.6351533166	        6.9761692470	        0.8603687361	        0.0000000000	       -0.0458384631	        0.0000000000	        0.0000000000	        0.0000000000	        0.0000000000	        0.0000000000	        0.0000000000	
        0.5897920095	       -0.4695886420	      133.8479037491	       12.2792460571	        0.4094954995	        0.0000000000	        0.0324707639	     -111.3528075573	      800.2698424379	       14.6232745190	        0.8688797576	        0.0000000000	       -0.0483954003	        0.0000000000	        0.0000000000	        0.0000000000	        0.0000000000	        0.0000000000	        0.0000000000	
        0.6005155006	       -1.4488477093	      100.6980720902	       14.1003639297	        0.4100721054	        0.0000000000	        0.0326930512	     -127.2328681593	      903.0598167529	       18.0195425454	        0.8746506193	        0.0000000000	       -0.0499803697	        0.0000000000	        0.0000000000	        0.0000000000	        0.0000000000	        0.0000000000	        0.0000000000	
        0.6112389917	       -4.6580573416	       64.2069800920	       13.1255305731	        0.4105058676	        0.0000000000	        0.0328216851	     -123.8970288841	      908.3760249418	       18.4398339956	        0.8788731835	        0.0000000000	       -0.0510158506	        0.0000000000	        0.0000000000	        0.0000000000	        0.0000000000	        0.0000000000	        0.0000000000	
        0.6219624828	       -8.8961138920	       26.2532849509	        6.4748910115	        0.4100920120	        0.0000000000	        0.0324756609	     -113.4841917393	      871.0047418324	       17.9065063910	        0.8825131317	        0.0000000000	       -0.0517658976	        0.0000000000	        0.0000000000	        0.0000000000	        0.0000000000	        0.0000000000	        0.0000000000	
        0.6326859738	        0.1571219100	       -0.1561328833	       -0.0132262259	        0.0000000000	        0.0000000000	        0.0000000000	     -100.9879025235	      831.6066887720	       16.2683688374	        0.8863589900	        0.0000000000	       -0.0524002701	        0.0000000000	        0.0000000000	        0.0000000000	        0.0000000000	        0.0000000000	        0.0000000000	
        0.6434094649	        0.0005965287	       -0.0004880476	        0.0000022433	        0.0000000000	        0.0000000000	        0.0000000000	      -92.0276231884	      806.4020759656	       17.3121295780	        0.8914955877	        0.0000000000	       -0.0530643815	        0.0000000000	        0.0000000000	        0.0000000000	        0.0000000000	        0.0000000000	        0.0000000000	
        0.6541329560	        0.0002155963	       -0.0001533250	        0.0000051235	        0.0000000000	        0.0000000000	        0.0000000000	      -84.8316247866	      783.7693104649	       17.2934215361	        0.8977198606	        0.0000000000	       -0.0532725025	        0.0000000000	        0.0000000000	        0.0000000000	        0.0000000000	        0.0000000000	        0.0000000000	
        0.6648564471	        0.0014173385	       -0.0009036936	        0.0000456529	        0.0000000000	        0.0000000000	        0.0000000000	      -76.5012551367	      748.7278626163	       17.0623731109	        0.9037483459	        0.0000000000	       -0.0533653641	        0.0000000000	        0.0000000000	        0.0000000000	        0.0000000000	        0.0000000000	        0.0000000000	
        0.6755799382	        0.0079856880	       -0.0046668942	        0.0002907139	        0.0000000000	        0.0000000000	        0.0000000000	      -68.5002392480	      712.3085290133	       16.7023496011	        0.9097136896	        0.0000000000	       -0.0533293348	        0.0000000000	        0.0000000000	        0.0000000000	        0.0000000000	        0.0000000000	        0.0000000000	
        0.6863034292	       -0.0573325008	        0.0311953239	       -0.0022397593	        0.0000000000	        0.0000000000	        0.0000000000	      -60.8875626075	      681.1231927007	       16.6017155083	        0.9155420436	        0.0000000000	       -0.0532631267	        0.0000000000	        0.0000000000	        0.0000000000	        0.0000000000	        0.0000000000	        0.0000000000	
